<?xml version="1.0" standalone="no"?>
<!DOCTYPE svg PUBLIC "-//W3C//DTD SVG 20010904//EN"
 "http://www.w3.org/TR/2001/REC-SVG-20010904/DTD/svg10.dtd">
<svg version="1.0" xmlns="http://www.w3.org/2000/svg"
 width="550.000000pt" height="696.000000pt" viewBox="0 0 550.000000 696.000000"
 preserveAspectRatio="xMidYMid meet">

<g transform="translate(0.000000,696.000000) scale(0.100000,-0.100000)"
fill="#000000" stroke="none">
<path d="M4290 6850 c-195 -54 -708 -193 -1140 -310 -432 -116 -790 -217 -797
-223 -7 -7 -59 -142 -116 -302 l-104 -290 277 -5 278 -5 -38 -130 c-21 -71
-84 -292 -140 -490 -178 -628 -710 -2497 -730 -2565 -43 -145 -48 -170 -42
-172 4 -2 436 -1 961 2 l954 5 39 140 c94 340 111 401 115 413 4 9 -129 12
-646 12 -358 0 -651 2 -651 4 0 2 14 50 30 107 48 165 56 195 105 369 25 91
55 194 65 230 30 102 54 188 124 435 36 127 148 523 250 880 266 937 286 1009
286 1021 0 10 424 124 458 124 7 0 11 -4 8 -8 -3 -5 -19 -58 -35 -118 -50
-184 -229 -835 -250 -909 -37 -132 -122 -440 -228 -825 -180 -660 -233 -855
-233 -863 0 -4 136 -6 302 -5 l302 3 7 25 c4 14 39 142 79 285 39 143 105 382
147 530 41 149 81 293 88 320 21 79 206 744 315 1135 27 96 74 267 105 380 66
239 118 426 185 670 68 243 66 230 44 229 -11 -1 -179 -45 -374 -99z"/>
<path d="M1708 1865 c-189 -48 -282 -164 -326 -405 -25 -141 -25 -902 1 -1037
42 -228 128 -341 297 -394 75 -23 279 -29 364 -9 115 26 221 102 266 190 52
102 62 175 67 483 3 158 2 303 -1 322 l-7 35 -241 -2 -241 -3 -38 -105 c-21
-58 -38 -111 -38 -117 -1 -10 34 -13 144 -13 l145 0 0 -147 c0 -228 -22 -322
-83 -367 -24 -18 -43 -21 -130 -21 -124 0 -153 12 -184 75 -37 74 -45 215 -40
669 3 312 8 419 19 461 29 110 58 130 186 130 76 0 94 -3 123 -23 19 -12 40
-36 48 -52 18 -38 34 -185 28 -262 -3 -35 -1 -63 3 -63 5 0 70 29 146 65 l137
65 -6 98 c-12 216 -98 349 -266 413 -73 28 -286 36 -373 14z"/>
<path d="M5265 1815 c-121 -36 -227 -68 -235 -73 -11 -7 -57 -164 -60 -204 0
-5 52 -8 115 -8 l115 0 0 -750 0 -750 145 0 145 0 0 925 c0 509 -1 925 -2 924
-2 0 -102 -29 -223 -64z"/>
<path d="M17 1853 c-4 -3 -7 -415 -7 -915 l0 -908 348 0 348 0 31 130 30 130
-234 0 -233 0 0 785 0 785 -138 0 c-76 0 -142 -3 -145 -7z"/>
<path d="M887 1854 c-4 -4 -7 -416 -7 -916 l0 -908 150 0 150 0 -2 913 -3 912
-141 3 c-77 1 -143 -1 -147 -4z"/>
<path d="M2564 1847 c-2 -7 -3 -362 -2 -788 3 -709 5 -778 21 -827 26 -77 54
-119 105 -158 69 -52 135 -68 267 -61 60 3 120 9 133 14 16 6 45 48 88 124
l64 114 0 -117 0 -118 150 0 150 0 -2 913 -3 912 -145 0 -145 0 -3 -766 -2
-767 -28 -11 c-42 -17 -129 -31 -194 -31 -69 0 -121 19 -140 52 -10 18 -14
174 -18 773 l-5 750 -143 3 c-113 2 -144 0 -148 -11z"/>
<path d="M3747 1853 c-4 -3 -7 -415 -7 -915 l0 -908 364 0 364 0 16 73 c9 39
23 98 31 129 l13 58 -249 0 -249 0 0 285 0 285 158 0 158 0 27 118 c15 64 27
123 27 130 0 9 -44 12 -185 12 l-185 0 0 238 0 237 235 -2 c217 -2 235 -1 235
15 -1 9 -14 69 -29 132 l-29 115 -344 3 c-189 1 -347 -1 -351 -5z"/>
</g>
</svg>
